<svg id="English_Colored_Logo" data-name="English Colored Logo" xmlns="http://www.w3.org/2000/svg" width="182.203" height="32.411" viewBox="0 0 182.203 32.411">
  <path id="Path_12298" data-name="Path 12298" d="M556.187,90.147a9.576,9.576,0,1,0-6.13,17.7,8.2,8.2,0,0,0,1.176.077,9.472,9.472,0,0,0,4.953-1.383v1.383h4.623V98.34A9.558,9.558,0,0,0,556.187,90.147Zm-4.958,13.68a5.485,5.485,0,1,1,5.488-5.482A5.485,5.485,0,0,1,551.228,103.827Z" transform="translate(-486.48 -79.723)" fill="#fff"/>
  <path id="Path_12299" data-name="Path 12299" d="M762.423,101.069v10.1H757.84V101.142a4.692,4.692,0,0,0-1.082-3.33,3.838,3.838,0,0,0-2.954-1.165,3.916,3.916,0,0,0-3,1.165,4.652,4.652,0,0,0-1.1,3.33v10.027H745.12v-11.2a8.684,8.684,0,0,1,4.591-6.592,8.587,8.587,0,0,1,4.026-.992,8.678,8.678,0,0,1,8.686,8.689Z" transform="translate(-669.224 -82.97)" fill="#fff"/>
  <path id="Path_12300" data-name="Path 12300" d="M1127.158,101.069v10.1h-4.59V101.142a4.7,4.7,0,0,0-1.082-3.33,3.837,3.837,0,0,0-2.954-1.165,3.913,3.913,0,0,0-2.995,1.165,4.647,4.647,0,0,0-1.1,3.33v10.027h-4.59v-11.2a8.683,8.683,0,0,1,4.59-6.592,8.591,8.591,0,0,1,4.026-.992,8.678,8.678,0,0,1,8.689,8.689Z" transform="translate(-996.804 -82.97)" fill="#fff"/>
  <path id="Path_12301" data-name="Path 12301" d="M939.051,53.925l8-9.112h-5.968l-6.1,7.7V38.72H930.4V62.974h4.591V55.239l6.162,7.735h5.962Z" transform="translate(-835.633 -34.776)" fill="#fff"/>
  <path id="Path_12302" data-name="Path 12302" d="M359.991,51.446v-.028c0-.133-.016-.262-.027-.4a9.459,9.459,0,0,0-6.765-8.1,9.318,9.318,0,0,0-2.632-.374,9.429,9.429,0,0,0-4.852,1.338V37H341.13V51.993a9.437,9.437,0,0,0,4.584,8.1,9.329,9.329,0,0,0,4.473,1.324c.123.011.252.011.38.011A9.438,9.438,0,0,0,360,52.482c.006-.161.011-.323.011-.485C360.007,51.809,360,51.626,359.991,51.446Zm-9.42,5.99a5.265,5.265,0,1,1,5.259-5.26,5.265,5.265,0,0,1-5.259,5.26Z" transform="translate(-306.384 -33.231)" fill="#fff"/>
  <path id="Path_12303" data-name="Path 12303" d="M1311.684,51.837a9.576,9.576,0,0,1,1.121-4.506,9.449,9.449,0,0,0-5.578-4.406,9.276,9.276,0,0,0-2.626-.374,9.432,9.432,0,0,0-4.858,1.338V37h-4.583V51.993a9.416,9.416,0,0,0,9.057,9.425c.122.011.257.011.385.011a9.457,9.457,0,0,0,8.3-4.922,9.5,9.5,0,0,1-1.215-4.67Zm-7.077,5.6a5.265,5.265,0,1,1,5.259-5.262,5.265,5.265,0,0,1-5.259,5.262Z" transform="translate(-1163.239 -33.231)" fill="#fff"/>
  <path id="Path_12304" data-name="Path 12304" d="M1486.217,96.883a9.6,9.6,0,1,0,.033,1.974,7.813,7.813,0,0,0,.039-.809,8.939,8.939,0,0,0-.072-1.165Zm-4.517,6.151h-9.972V93.062h9.972Z" transform="translate(-1317.655 -79.425)" fill="#fff"/>
  <path id="Path_12305" data-name="Path 12305" d="M1623.9,148.569a9.553,9.553,0,0,1-4.691,7.446l-.072.112a.7.7,0,0,0,.1-.056,9.55,9.55,0,0,0,4.685-7.446c.006-.039.006-.084.011-.122Zm0-1.924a9.417,9.417,0,0,0-.837-2.9,9.764,9.764,0,0,1,.8,2.852Z" transform="translate(-1454.22 -129.099)" fill="#0b2265"/>
  <path id="Path_12306" data-name="Path 12306" d="M1628.627,108.366h-5.416l-3.893-5.85-3.43,5.85h-5.281l.736-1.17a.7.7,0,0,0,.1-.056,9.55,9.55,0,0,0,4.685-7.446c.006-.039.006-.084.011-.122.022-.229.029-.452.029-.687a8.982,8.982,0,0,0-.072-1.165v-.006a9.421,9.421,0,0,0-.837-2.9c-.061-.128-.122-.257-.19-.38a8.466,8.466,0,0,0-.536-.9c-.1-.156-.212-.306-.323-.457a9.523,9.523,0,0,0-2.928-2.577l-.825-1.238h5.421l3.837,5.772,3.374-5.772h5.281l-6.068,9.637Z" transform="translate(-1446.424 -80.168)" fill="#fff"/>
  <path id="Path_12307" data-name="Path 12307" d="M49.791,97.99l7.191,6.224-7.191,6.224L42.6,104.214l7.191-6.224Z" transform="translate(-38.261 -88.009)" fill="#0b2265" fill-rule="evenodd"/>
  <path id="Path_12308" data-name="Path 12308" d="M4.339,16.205,0,12.449V0L11.53,9.981,4.339,16.205Z" fill="#009ad7" fill-rule="evenodd"/>
  <path id="Path_12309" data-name="Path 12309" d="M0,0,14.667,12.7l4.054,3.51,3.136-2.714a4.506,4.506,0,0,0,0-7.02L14.382,0Z" fill="#4bc8eb" fill-rule="evenodd"/>
  <path id="Path_12310" data-name="Path 12310" d="M4.339,159.1,0,162.856v12.449l11.53-9.981L4.339,159.1Z" transform="translate(0 -142.895)" fill="#009ad7" fill-rule="evenodd"/>
  <path id="Path_12311" data-name="Path 12311" d="M0,175.305l14.667-12.7,4.054-3.51,3.136,2.716a4.5,4.5,0,0,1,0,7.019l-7.475,6.471Z" transform="translate(0 -142.895)" fill="#4bc8eb" fill-rule="evenodd"/>
</svg>
